<svg xmlns="http://www.w3.org/2000/svg" xmlns:xlink="http://www.w3.org/1999/xlink" version="1.1" x="0px" y="0px" viewBox="0 0 512 640" style="enable-background:new 0 0 512 512;" xml:space="preserve"><g><path d="M248,205c37,0,67-30.1,67-67v-24c0-37-30.1-67-67-67s-67,30.1-67,67v24C181,174.9,211,205,248,205z M195,114   c0-29.2,23.8-53,53-53s53,23.8,53,53v24c0,29.2-23.8,53-53,53s-53-23.8-53-53L195,114L195,114z"/><path d="M475,238c0-60.6-23.6-117.6-66.5-160.5C365.6,34.6,308.6,11,248,11S130.4,34.6,87.5,77.5C44.6,120.4,21,177.4,21,238   s23.6,117.6,66.5,160.5C130.4,441.4,187.4,465,248,465c33.9,0,67.4-7.6,97.8-22.1l-2,47.7c0,0.1,0,0.2,0,0.3c0,3.9,2.3,7.6,5.8,9.2   c3.6,1.6,7.6,1,10.7-1.6l43.7-37.7l43.7,37.7c1.9,1.6,4.2,2.5,6.5,2.5c1.4,0,2.8-0.3,4.1-0.9c3.5-1.6,5.8-5.2,5.8-9.2   c0-0.1,0-0.2,0-0.3l-4.1-98.5c18.9-16,30.9-39.8,30.9-66.5c0-20.2-6.9-38.8-18.5-53.6C474.1,260.8,475,249.4,475,238z M35,238   c0-117.4,95.6-213,213-213s213,95.6,213,213c0,7-0.4,14.1-1,21.1c-15.1-12.7-34.7-20.4-56-20.4c-9.7,0-19.1,1.6-27.8,4.6   c-13.1-13.7-31.1-21.4-50.3-21.4h-17.3c-3,0-5.6,1.9-6.6,4.6l-34.4,95.7l-5-46.6h0.1c3,0,5.7-1.9,6.6-4.7l12-35.2   c0.7-2.1,0.4-4.5-0.9-6.3c-1.3-1.8-3.4-2.9-5.7-2.9l-50-0.2c0,0,0,0,0,0c-2.3,0-4.4,1.1-5.7,2.9c-1.3,1.8-1.7,4.2-0.9,6.3l12,35.4   c1,2.8,3.6,4.8,6.6,4.8h1.5l-5.1,47L198,226.4c-1-2.8-3.6-4.6-6.6-4.6h-21.3c-38.6,0-69.9,31.4-69.9,69.9v99.4   C60,352.5,35,298.1,35,238z M257.7,261.6h-16l-7.2-21.3l30.5,0.1L257.7,261.6z M250.4,293.2l12.1,112.3l-11.9,8l-12.3-8.1   L250.4,293.2z M248,451c-50.6,0-97.2-17.8-133.8-47.4V291.8c0-30.8,25.1-55.9,55.9-55.9h16.4L229.7,354l-5.8,54.2   c-0.3,2.6,0.9,5.2,3.1,6.6l19.8,13c1.2,0.8,2.5,1.2,3.8,1.2c1.4,0,2.7-0.4,3.9-1.2l19.3-13c2.1-1.5,3.3-4,3-6.6L271,354l42.5-118.2   h12.3c13.6,0,26.4,4.8,36.4,13.5c-27,14.8-45.3,43.5-45.3,76.3c0,26.6,12,50.5,30.9,66.5l-1.5,34.8C316.2,442.7,282.3,451,248,451z    M449.9,481.9l-39.1-33.7c-1.9-1.7-4.2-2.7-6.7-2.7s-4.9,1-6.7,2.7l-39.1,33.7l3.4-80.3c12.6,7.1,27.1,11.1,42.5,11.1   s29.9-4,42.5-11.1L449.9,481.9z M404,398.7c-40.3,0-73-32.7-73-73s32.7-73,73-73s73,32.7,73,73S444.3,398.7,404,398.7z"/><path d="M440.4,291.6l-48,48l-24.7-25c-2.7-2.7-7.2-2.8-9.9,0c-2.7,2.7-2.8,7.2,0,9.9l29.7,30c1.3,1.3,3.1,2.1,5,2.1c0,0,0,0,0,0   c1.9,0,3.6-0.7,5-2l52.9-52.9c2.7-2.7,2.7-7.2,0-9.9C447.5,288.9,443.1,288.9,440.4,291.6z"/></g><text x="0" y="527" fill="#000000" font-size="5px" font-weight="bold" font-family="'Helvetica Neue', Helvetica, Arial-Unicode, Arial, Sans-serif">Created by icongeek</text><text x="0" y="532" fill="#000000" font-size="5px" font-weight="bold" font-family="'Helvetica Neue', Helvetica, Arial-Unicode, Arial, Sans-serif">from the Noun Project</text></svg>